<svg xmlns="http://www.w3.org/2000/svg" xmlns:xlink="http://www.w3.org/1999/xlink" version="1.1" width="640" height="480" viewBox="0 0 640 480" xml:space="preserve">
<desc>Created with Fabric.js 3.6.6</desc>
<defs>
</defs>
<g transform="matrix(1.33 0 0 1.33 117.95 -333.87)">
<path style="stroke: none; stroke-width: 1; stroke-dasharray: none; stroke-linecap: butt; stroke-dashoffset: 0; stroke-linejoin: miter; stroke-miterlimit: 4; fill: rgb(0,0,0); fill-rule: nonzero; opacity: 1;" transform=" translate(-111.72, -69.16)" d="m 84.559 63.84 c 2.8008 -15.121 17.359 -24.641 32.48 -21.84 c 15.121 2.8008 24.641 17.359 21.84 32.48 c -2.8008 15.121 -17.359 24.641 -32.48 21.84 c -15.117 -2.8008 -24.637 -17.359 -21.84 -32.48 z" stroke-linecap="round"/>
</g>
<g transform="matrix(1.33 0 0 1.33 761.61 -159.14)">
<path style="stroke: none; stroke-width: 1; stroke-dasharray: none; stroke-linecap: butt; stroke-dashoffset: 0; stroke-linejoin: miter; stroke-miterlimit: 4; fill: rgb(0,0,0); fill-rule: nonzero; opacity: 1;" transform=" translate(-594.44, -200.2)" d="m 615.44 204.4 c -2.2383 11.762 -13.441 19.039 -25.199 16.801 c -11.762 -2.2383 -19.039 -14 -16.801 -25.199 c 2.2383 -11.762 13.441 -19.039 25.199 -16.801 c 11.758 2.2422 19.039 13.441 16.801 25.199 z" stroke-linecap="round"/>
</g>
<g transform="matrix(1 0 0 1 322.14 224.89)">
<g style="">
		<g transform="matrix(1.33 0 0 1.33 0 -34.3)">
<path style="stroke: none; stroke-width: 1; stroke-dasharray: none; stroke-linecap: butt; stroke-dashoffset: 0; stroke-linejoin: miter; stroke-miterlimit: 4; fill: rgb(0,0,0); fill-rule: nonzero; opacity: 1;" transform=" translate(-306.24, -224.16)" d="m 519.68 178.08 c -8.3984 -22.961 -38.078 -34.16 -86.801 -32.48 c -42.559 -53.199 -115.92 -76.16 -184.24 -51.52 c -67.762 24.641 -109.76 89.039 -109.2 157.36 c -38.641 29.68 -54.879 57.121 -46.48 80.078 c 5.6016 15.68 21.281 25.199 43.121 29.68 c 47.602 9.5195 124.88 -5.0391 197.12 -30.801 c 54.879 -19.602 104.16 -44.801 138.88 -71.68 c 49.84 -37.516 53.199 -64.395 47.598 -80.637 z m -63.281 59.922 c -32.48 24.641 -79.52 48.719 -132.16 67.762 c -52.641 19.039 -103.6 30.238 -145.04 31.922 c -38.641 1.6797 -58.801 -6.1602 -61.602 -14.559 c -2.8008 -7.2812 4.4805 -21.84 25.199 -39.762 c 1.6797 7.8398 3.3594 15.68 6.1602 22.961 c 1.6797 4.4805 3.3594 8.3984 5.0391 12.32 l 24.078 -10.641 c -1.6797 -3.3594 -2.8008 -7.2812 -4.4805 -10.641 c -25.762 -72.238 11.762 -152.32 84 -178.08 c 72.238 -25.762 151.76 11.762 177.52 84 c 1.1211 3.3594 2.2383 7.2812 3.3594 10.641 l 25.199 -6.7188 c -1.1211 -4.4805 -2.8008 -8.9609 -3.9219 -12.879 c -2.8008 -7.8398 -6.1602 -15.121 -9.5195 -21.84 c 27.441 1.1211 42 7.2812 44.801 15.121 c 2.8086 8.3906 -7.832 26.871 -38.633 50.391 z" stroke-linecap="round"/>
</g>
		<g transform="matrix(1.33 0 0 1.33 47.85 144.73)">
<path style="stroke: none; stroke-width: 1; stroke-dasharray: none; stroke-linecap: butt; stroke-dashoffset: 0; stroke-linejoin: miter; stroke-miterlimit: 4; fill: rgb(0,0,0); fill-rule: nonzero; opacity: 1;" transform=" translate(-341.88, -358.22)" d="m 360.64 405.44 c -28.559 10.078 -58.801 12.32 -87.922 6.7188 c -16.238 -3.3594 -32.48 -8.9609 -47.602 -17.359 l 12.879 -22.961 c 34.719 19.039 76.16 22.398 113.68 8.9609 c 37.52 -13.441 67.199 -42.559 82.32 -79.52 l 24.641 9.5195 c -17.918 44.238 -53.758 78.961 -97.996 94.641 z" stroke-linecap="round"/>
</g>
</g>
</g>
</svg>